# xmcd
#
# Track frame offsets: 
#        150
#        15414
#        26815
#        43574
#        60759
#        75338
#        89611
#        100056
#        119463
#        131797
#        148511
#        167586
#        181887
#        195846
#
# Disc length: 2810 seconds
#
# Revision: 0
# Processed by: cddbd v1.5.2PL0 Copyright (c) Steve Scherf et al.
# Submitted via: ExactAudioCopy v0.99pb1
#
DISCID=a60af80e
DTITLE=John Mayall - The Blues Alone
DYEAR=1967
DGENRE=Blues
TTITLE0=Brand New Start
TTITLE1=Please Don`t Tell
TTITLE2=Down The Line
TTITLE3=Sonny Boy Blow
TTITLE4=Marsha`s Mood
TTITLE5=No More Tears
TTITLE6=Catch That Train
TTITLE7=Cancelling Out
TTITLE8=Harp Man
TTITLE9=Brown Sugar
TTITLE10=Broken Wings
TTITLE11=Don`t Kick Me
TTITLE12=Brand New Start - First version [Bonus]
TTITLE13=Marsha's Mood - First version [Bonus]
EXTD=
EXTT0=
EXTT1=
EXTT2=
EXTT3=
EXTT4=
EXTT5=
EXTT6=
EXTT7=
EXTT8=
EXTT9=
EXTT10=
EXTT11=
EXTT12=
EXTT13=
PLAYORDER=
